# xmcd
#
# Track frame offsets:
#	150
#	20510
#	41475
#	58710
#	75030
#	98835
#	125937
#	146985
#	165877
#	187335
#	209695
#	231852
#
# Disc length: 3342 seconds
#
# Revision: 4
# Processed by: cddbd v1.5.2PL0 Copyright (c) Steve Scherf et al.
# Submitted via: EasyCDDAExtractor 15.3.0.1
#
DISCID=a80d0c0c
DTITLE=Laura Pausini - Las Cosas Que Vives
DYEAR=1996
DGENRE=Latin
TTITLE0=Las Cosas Que Vives
TTITLE1=Escucha A Tu Corazon
TTITLE2=Inolvidable
TTITLE3=Cuando Se Ama
TTITLE4=Angeles En El Cielo
TTITLE5=Lo Siento
TTITLE6=Dos Enamorados
TTITLE7=Que Historia Es
TTITLE8=16/5/74
TTITLE9=Un Dia Sin Ti
TTITLE10=La Voz
TTITLE11=El Mundo Que Soñe
EXTD=VERY COOL FOR A ITALIAN.\njmd. YEAR: 1996
EXTT0=
EXTT1=
EXTT2=
EXTT3=
EXTT4=
EXTT5=
EXTT6=
EXTT7=
EXTT8=
EXTT9=
EXTT10=
EXTT11=
PLAYORDER=
